<?xml version="1.0" encoding="utf-8"?>
<!-- Generator: Adobe Illustrator 19.2.1, SVG Export Plug-In . SVG Version: 6.00 Build 0)  -->
<svg version="1.1" id="Layer_1" xmlns="http://www.w3.org/2000/svg" xmlns:xlink="http://www.w3.org/1999/xlink" x="0px" y="0px"
	 viewBox="0 0 733.7 156" style="enable-background:new 0 0 733.7 156;" xml:space="preserve">
<style type="text/css">
	.st0{fill:#FFFFFF;}
	.st1{fill:#D7DF23;}
</style>
<g>
	<path class="st0" d="M54.4,24.2c1.6,0,2.8,1.3,2.8,2.8l0,27.3c0,0.2-0.1,0.4-0.1,0.6s0.1,0.4,0.1,0.7c0,13.9-11.4,25.3-25.5,25.3
		S6,69.5,6,55.6c0-1.6,1.3-2.8,2.8-2.8c1.6,0,2.8,1.2,2.8,2.8c0,10.8,9,19.8,20.1,19.8s20-8.9,20-19.8c0-0.3,0.1-0.5,0.1-0.7
		s-0.1-0.4-0.1-0.6V29.8H10.1c-1.6,0-2.9-1.2-2.9-2.8c0-1.5,1.3-2.8,2.9-2.8H54.4z M10.1,15.7c-1.6,0-2.9-1.2-2.9-2.8
		c0-1.5,1.3-2.8,2.9-2.8h44.2c1.6,0,2.8,1.3,2.8,2.8c0,1.6-1.2,2.8-2.8,2.8H10.1z"/>
	<path class="st0" d="M130.8,77c0.6,1.3,0,3.2-1.5,3.7c-1.3,0.6-2.9,0-3.5-1.5l-8.4-19.5l-15.9,9.6c-0.5,0.3-0.9,0.4-1.4,0.4
		c-0.6,0-1-0.1-1.4-0.4l-16-9.6l-8.3,19.5c-0.3,1-1.5,1.8-2.4,1.8c-0.5,0-0.9,0-1.1-0.3c-1.5-0.5-2.2-2.4-1.5-3.7l8.5-20.2l-7.6-4.7
		c-1.1-0.8-1.7-2.5-0.8-3.9c0.7-1.2,2.4-1.6,3.6-0.8l7,4.3l17.5-40.2c0.5-1.1,1.3-1.9,2.5-1.9s2,0.8,2.4,1.9L120,51.7l6.9-4.3
		c1.2-0.8,2.9-0.4,3.7,0.8c0.8,1.4,0.3,3.1-0.9,3.9l-7.6,4.7L130.8,77z M100.1,19.3L85,54.5l15.1,9.1l15.1-9.1L100.1,19.3z"/>
	<path class="st0" d="M213.8,56.9l-31.4,23.4c-0.1,0.1-0.1,0.1-0.2,0.1c0,0-0.1,0-0.1,0.1c-0.1,0-0.2,0.1-0.3,0.1
		c-0.4,0.2-0.7,0.3-1.1,0.3c-0.3,0-0.7-0.1-1.1-0.3c-0.1,0-0.2-0.1-0.3-0.1c0-0.1-0.1-0.1-0.1-0.1c-0.1,0-0.1-0.1-0.1-0.1
		l-30.7-23.1v20.9c0,1.6-1.2,2.9-2.8,2.9c-1.5,0-2.8-1.3-2.8-2.9V12.5c0-0.1,0-0.1,0-0.2l0.1-0.1c0-0.3,0-0.5,0.1-0.6
		c0-0.2,0.1-0.4,0.2-0.6l0.1-0.1v-0.2c0.1,0,0.1,0,0.1,0l0.1-0.1c0.1-0.1,0.3-0.3,0.4-0.4l0.5-0.3c0.1-0.1,0.3-0.1,0.4-0.2
		c0.2,0,0.4-0.1,0.6-0.1c0.1,0,0.1,0,0.2,0c0.1-0.1,0.1,0,0.1,0h0.2c0.2,0,0.4,0.1,0.6,0.1L147,10c0.1,0,0.1,0,0.2,0.1l33.7,25.4
		l34-25.4c0.1,0,0.1,0,0.1-0.1h0.2c0.2-0.1,0.4-0.2,0.5-0.3c0.2,0,0.4-0.1,0.6-0.1h0.2c0,0,0-0.1,0.1-0.1c0,0,0,0.1,0.1,0.1h0.1
		c0.2,0,0.4,0.1,0.6,0.1l0.5,0.2c0.1,0.1,0.2,0.2,0.4,0.3c0.2,0.1,0.3,0.3,0.4,0.4c0,0.1,0.1,0.1,0.1,0.1s0.1,0,0.1,0.1
		c0,0,0,0,0,0.1L219,11c0.1,0.2,0.2,0.4,0.2,0.6c0.1,0.2,0.1,0.3,0.1,0.6c0.1,0,0.1,0.1,0.1,0.1v0.2v65.7c0,1.6-1.3,2.9-2.8,2.9
		c-1.6,0-2.8-1.3-2.8-2.9V56.9z M148.4,18.1v12.7l32.5,24.5l32.9-24.8V18.1l-31.2,23.3h-0.2c0,0.1-0.1,0.1-0.1,0.1
		c-0.1,0.1-0.2,0.1-0.3,0.1c-0.4,0.2-0.7,0.3-1,0.3h-0.2c-0.3,0-0.6-0.1-1-0.3c-0.1,0-0.2,0-0.3-0.1c0,0-0.1,0-0.1-0.1h-0.1
		L148.4,18.1z M148.4,38v12l32.3,24.4l33.1-24.7V37.8l-31.2,23.5h-0.2c0,0.1-0.1,0.1-0.1,0.1l-0.3,0.2c-0.4,0.1-0.7,0.2-1.1,0.2
		c-0.3,0-0.7-0.1-1.1-0.2l-0.3-0.2c0,0-0.1,0-0.1-0.1h-0.1L148.4,38z"/>
	<path class="st0" d="M248.2,10.7l12.3,11.1c0.4,0.5,0.7,1.1,0.8,1.8c0,0.6-0.2,1.3-0.6,1.8c-0.5,0.5-1.2,0.8-1.9,0.8
		c-0.6,0-1.2-0.2-1.7-0.6l-7.8-7.1l-0.7-0.7v7.4l0.2,0.2l11.6,10.5c0.4,0.4,0.7,1.1,0.8,1.7c0,0.7-0.2,1.3-0.6,1.8
		c-0.5,0.6-1.2,0.9-1.9,0.9c-0.6,0-1.2-0.2-1.7-0.7l-7.8-7.1l-0.7-0.6v7.9l0.2,0.1l11.6,10.6c0.4,0.4,0.7,1,0.8,1.7
		c0,0.7-0.2,1.3-0.6,1.8c-0.5,0.6-1.2,0.9-1.9,0.9c-0.6,0-1.2-0.3-1.6-0.7l-7.8-7.1l-0.7-0.6v8.6l0.2,0.1l11.6,10.5
		c0.4,0.5,0.7,1.1,0.8,1.8c0,0.6-0.2,1.3-0.6,1.8c-0.5,0.5-1.2,0.8-1.9,0.8c-0.6,0-1.2-0.2-1.6-0.6l-7.8-7.1l-0.7-0.7v16.5
		c0,1.4-1.1,2.5-2.4,2.5c-1.4,0-2.5-1.1-2.5-2.5V62l-0.7,0.6l-7.8,7.1c-0.5,0.4-1,0.7-1.7,0.7s-1.3-0.3-1.8-0.9
		c-0.4-0.5-0.7-1.1-0.6-1.8c0-0.7,0.3-1.3,0.8-1.7l11.6-10.5l0.1-0.2v-8.6l-0.7,0.6l-7.8,7.2c-0.5,0.4-1,0.6-1.7,0.6
		s-1.3-0.3-1.8-0.9c-0.4-0.5-0.7-1.1-0.6-1.8c0-0.6,0.3-1.3,0.8-1.7L243.7,40l0.1-0.1v-8l-0.7,0.7l-7.8,7.1c-0.5,0.4-1,0.6-1.7,0.6
		s-1.3-0.3-1.8-0.8c-0.4-0.5-0.7-1.2-0.6-1.8c0-0.7,0.3-1.3,0.8-1.8l11.6-10.5l0.1-0.1v-7.4l-0.7,0.6l-7.8,7.1
		c-0.5,0.4-1,0.6-1.7,0.6s-1.3-0.3-1.8-0.8c-0.4-0.5-0.7-1.1-0.6-1.8c0-0.7,0.3-1.3,0.8-1.7l12.5-11.4c0.5-0.5,1.1-0.7,1.7-0.7
		c0.7,0,1.3,0.3,1.8,0.8C248.1,10.6,248.1,10.6,248.2,10.7L248.2,10.7z"/>
	<path class="st0" d="M276.2,16c-1.7,0-3-1.4-3-3.1s1.3-3.1,3-3.1h56.6c1.7,0,3,1.4,3,3.1s-1.3,3.1-3,3.1H276.2z M276.2,37.7
		c-1.7,0-3-1.4-3-3c0-1.7,1.3-3.1,3-3.1h56.6c1.7,0,3,1.4,3,3.1c0,1.6-1.3,3-3,3H276.2z M276.2,59.6c-1.7,0-3-1.4-3-3
		c0-1.7,1.3-3.1,3-3.1h56.6c1.7,0,3,1.4,3,3.1c0,1.6-1.3,3-3,3H276.2z M276.2,80.9c-1.7,0-3-1.4-3-3.1c0-1.7,1.3-3,3-3h56.6
		c1.7,0,3,1.3,3,3c0,1.7-1.3,3.1-3,3.1H276.2z"/>
	<path class="st0" d="M444.6,75.5c9.3-0.4,18.1-5.1,23.5-12.6c0.9-1.2,2.6-1.5,3.9-0.6c1.2,0.9,1.5,2.6,0.6,3.8
		c-6.8,9.3-17.7,14.9-29.3,14.9h-1.2c-0.1,0-0.2,0-0.3,0c-0.2,0-0.3,0-0.5-0.1c-18.9-1-34-16.5-34-35.6c0-19,15.1-34.6,34-35.6
		c0.2-0.1,0.3-0.1,0.5-0.1h0.3c0.4,0,0.8,0,1.2,0c12.1,0,23.3,6,30,15.9c0.8,1.2,0.5,2.9-0.8,3.8c-1.3,0.8-3,0.5-3.8-0.8
		c-5.5-8-14.4-13-24.1-13.4V75.5z M439.1,15.4c-14.8,2.1-26.2,14.7-26.2,29.9c0,15.3,11.4,27.9,26.2,29.9V15.4z"/>
	<path class="st0" d="M485.7,12.8c0-1.6,1.3-2.9,2.9-2.9s2.8,1.3,2.8,2.9v65.3c0,1.6-1.2,2.9-2.8,2.9s-2.9-1.3-2.9-2.9V12.8z
		 M524.1,58.4c0.8,0.6,1.1,1.6,1.1,2.5c0,0.9-0.3,1.8-1.1,2.4l-7.8,6.3c-0.5,0.5-1.2,0.7-1.8,0.7c-0.8,0-1.7-0.4-2.2-1.1
		c-1-1.3-0.8-3.1,0.4-4.1l5.3-4.2l-5.3-4.2l-0.2-0.3c-0.1-0.1-0.2-0.1-0.2-0.2c-0.1-0.1-0.1-0.1-0.1-0.2c-0.2-0.2-0.2-0.3-0.3-0.5
		s-0.1-0.4-0.2-0.6v-0.5c0-0.2,0-0.4,0-0.6c0.1-0.1,0.1-0.3,0.2-0.5s0.1-0.3,0.3-0.5c0-0.1,0-0.1,0.1-0.2c0-0.1,0.1-0.1,0.2-0.2
		l0.2-0.3l5.1-4l-5.1-4.1c-0.2-0.2-0.3-0.2-0.4-0.4c-0.1-0.1-0.2-0.2-0.2-0.4c-0.1,0-0.1-0.1-0.1-0.2c-0.2-0.2-0.2-0.5-0.3-0.7v-0.5
		c0-0.2,0-0.4,0-0.5c0.1-0.3,0.1-0.5,0.3-0.7c0-0.1,0-0.2,0.1-0.3c0-0.1,0.1-0.2,0.2-0.4c0.1-0.1,0.3-0.2,0.4-0.4h0.1
		c0.1-0.1,0.2-0.3,0.4-0.3l4.6-3.7l-5.1-4l-0.2-0.3c-0.1-0.1-0.2-0.1-0.2-0.2c-0.1-0.1-0.1-0.1-0.1-0.2c-0.2-0.2-0.2-0.3-0.3-0.5
		s-0.1-0.4-0.2-0.6v-0.5c0-0.2,0-0.4,0-0.6c0.1-0.1,0.1-0.3,0.2-0.5c0.1-0.1,0.1-0.3,0.3-0.5c0-0.1,0-0.1,0.1-0.2
		c0-0.1,0.1-0.1,0.2-0.2l0.2-0.3l7.9-6.3c1.2-1,3-0.8,4,0.5c1,1.2,0.8,3.1-0.5,4.1l-5,4l5,4l0.2,0.3c0.1,0.1,0.2,0.1,0.3,0.2
		c0,0.1,0.1,0.1,0.1,0.2c0.1,0.2,0.2,0.4,0.3,0.5c0,0.2,0.1,0.4,0.1,0.6c0.1,0.1,0.1,0.3,0.1,0.5s0,0.4-0.1,0.6
		c0,0.1-0.1,0.3-0.1,0.5l-0.3,0.5c0,0.1-0.1,0.1-0.1,0.2c-0.1,0.1-0.2,0.1-0.2,0.2l-0.3,0.3l-5,4l5,4c0.1,0,0.1,0.2,0.2,0.2l0.3,0.3
		c0,0,0.1,0.1,0.1,0.2c0.1,0.1,0.2,0.3,0.3,0.5c0,0.2,0.1,0.3,0.1,0.5c0.1,0.2,0.1,0.4,0.1,0.6s0,0.3-0.1,0.5c0,0.2-0.1,0.4-0.1,0.5
		l-0.3,0.6c0,0-0.1,0.1-0.1,0.2c-0.1,0.1-0.2,0.1-0.2,0.2l-0.3,0.3l-5,4L524.1,58.4z M544.3,12.8c0-1.6,1.3-2.9,2.9-2.9
		s2.9,1.3,2.9,2.9v65.3c0,1.6-1.3,2.9-2.9,2.9s-2.9-1.3-2.9-2.9V12.8z"/>
	<path class="st0" d="M570.5,22.1l-6-6.1c-0.6-0.5-0.9-1.3-0.9-2c0-0.8,0.3-1.5,0.9-2.1c0.5-0.5,1.2-0.8,2-0.8s1.5,0.3,2,0.8
		l6.1,6.1l0.1-0.1c6.5-5.5,14.6-8.4,23.1-8.4c19.7,0,35.7,16,35.7,35.7c0,8.4-3,16.6-8.4,23l-0.1,0.1l6.1,6.1c0.5,0.5,0.8,1.2,0.8,2
		c0,0.8-0.3,1.5-0.8,2c-0.6,0.6-1.3,0.9-2.1,0.9s-1.5-0.3-2-0.9l-6.1-6l-0.1,0.1c-6.5,5.5-14.6,8.4-23,8.4
		c-19.8,0-35.8-16-35.8-35.8C562,36.8,564.9,28.7,570.5,22.1L570.5,22.1z M574.6,26.1l-0.1,0.2c-4.4,5.3-6.8,12-6.8,18.9
		c0,16.6,13.4,30,30,30c6.9,0,13.5-2.4,18.9-6.8l0.1-0.1L574.6,26.1z M578.7,22.1l42.1,42.1l0.1-0.1c4.4-5.4,6.8-12,6.8-19
		c0-16.5-13.4-29.9-29.9-29.9C590.8,15.3,584.1,17.6,578.7,22.1L578.7,22.1z"/>
	<path class="st0" d="M648.3,15.9c-1.7,0-3-1.3-3-3c0-1.6,1.3-3,3-3H721c1.6,0,2.9,1.4,2.9,3c0,1.7-1.3,3-2.9,3H648.3z M684.8,33.5
		l-16,45.4c-0.5,1.2-1.6,2-2.8,2s-2.3-0.8-2.7-2l-17.6-49.8c-0.3-0.9-0.2-1.9,0.4-2.7c0.5-0.8,1.4-1.3,2.4-1.3H721
		c0.9,0,1.8,0.5,2.4,1.3c0.5,0.8,0.6,1.8,0.3,2.7l-17.5,49.8c-0.4,1.2-1.5,2-2.8,2c-1.2,0-2.3-0.8-2.7-2L684.8,33.5z M652.6,31.2
		l13.4,38l13.4-38H652.6z M690.1,31.2l13.3,38l13.4-38H690.1z"/>
</g>
<g>
	<g>
		<path class="st0" d="M20.5,146.5c1.8,0,3.3-0.3,4.5-1c1.2-0.7,2.2-1.6,2.9-2.7c0.7-1.1,1.2-2.4,1.5-3.9c0.3-1.4,0.4-2.9,0.4-4.4
			v-14.6h2.9v14.6c0,2-0.2,3.8-0.7,5.6c-0.4,1.8-1.1,3.3-2.1,4.6c-1,1.3-2.2,2.4-3.8,3.2c-1.5,0.8-3.4,1.2-5.7,1.2
			c-2.3,0-4.2-0.4-5.8-1.2s-2.8-1.9-3.7-3.3c-1-1.4-1.6-2.9-2-4.6c-0.4-1.7-0.6-3.5-0.6-5.4v-14.6h2.8v14.6c0,1.5,0.1,3,0.4,4.4
			c0.3,1.4,0.8,2.7,1.5,3.8c0.7,1.1,1.7,2,2.9,2.7C17.2,146.1,18.7,146.5,20.5,146.5z"/>
		<path class="st0" d="M41.3,119.9l9.5,12.6l9.5-12.6h3.1l-11.1,14.7l10.8,14.3H60l-9.2-12.2l-9.2,12.2h-3.2l10.8-14.3l-11.1-14.7
			H41.3z"/>
		<path class="st0" d="M81.5,148.8v-28.9h9.8c2.3,0,4.3,0.4,6.1,1.1c1.7,0.8,3.2,1.8,4.3,3.1c1.2,1.3,2,2.8,2.6,4.6
			c0.6,1.8,0.9,3.6,0.9,5.6c0,2.2-0.3,4.2-1,6c-0.7,1.8-1.6,3.3-2.8,4.6c-1.2,1.3-2.6,2.2-4.4,2.9c-1.7,0.7-3.6,1-5.7,1H81.5z
			 M102.3,134.3c0-1.7-0.2-3.3-0.7-4.8c-0.5-1.5-1.2-2.7-2.1-3.8c-0.9-1.1-2.1-1.9-3.4-2.5c-1.4-0.6-2.9-0.9-4.7-0.9h-7v23.9h7
			c1.8,0,3.4-0.3,4.7-0.9s2.5-1.5,3.4-2.5c0.9-1.1,1.6-2.3,2.1-3.8C102,137.6,102.3,136,102.3,134.3z"/>
		<path class="st0" d="M132.2,146.3v2.5h-19.4v-28.9h19.1v2.5h-16.3v10.4h14.2v2.4h-14.2v11H132.2z"/>
		<path class="st0" d="M156.3,125.3c-0.8-0.9-1.9-1.7-3.3-2.2c-1.4-0.6-2.9-0.9-4.6-0.9c-2.6,0-4.5,0.5-5.6,1.4
			c-1.2,1-1.8,2.3-1.8,3.9c0,0.9,0.2,1.6,0.5,2.1c0.3,0.6,0.8,1,1.5,1.4c0.7,0.4,1.5,0.8,2.5,1.1s2.2,0.6,3.6,0.9
			c1.5,0.3,2.9,0.7,4.2,1.1c1.2,0.4,2.3,0.9,3.1,1.5s1.5,1.4,2,2.2c0.5,0.9,0.7,2,0.7,3.3c0,1.3-0.3,2.5-0.8,3.5
			c-0.5,1-1.2,1.8-2.2,2.4s-2,1.1-3.3,1.4c-1.3,0.3-2.7,0.5-4.2,0.5c-4.5,0-8.4-1.4-11.6-4.2l1.4-2.3c1.1,1.1,2.5,2.1,4.3,2.8
			c1.8,0.8,3.8,1.2,6,1.2c2.3,0,4.1-0.4,5.4-1.2c1.3-0.8,2-2.1,2-3.8c0-0.9-0.2-1.7-0.6-2.3s-0.9-1.1-1.7-1.6
			c-0.7-0.4-1.7-0.8-2.8-1.2c-1.1-0.3-2.4-0.7-3.8-1c-1.5-0.4-2.9-0.7-4-1.1s-2.1-0.9-2.9-1.4s-1.4-1.3-1.8-2.1
			c-0.4-0.8-0.6-1.8-0.6-3c0-1.3,0.3-2.5,0.8-3.6c0.5-1,1.2-1.9,2.1-2.6c0.9-0.7,2-1.2,3.3-1.6c1.3-0.4,2.7-0.6,4.2-0.6
			c1.9,0,3.6,0.3,5.1,0.9s2.9,1.4,4.1,2.5L156.3,125.3z"/>
		<path class="st0" d="M166.3,148.8v-28.9h2.8v28.9H166.3z"/>
		<path class="st0" d="M199.4,144.6c-2.7,2.9-5.8,4.4-9.3,4.4c-2,0-3.8-0.4-5.4-1.3c-1.6-0.8-3.1-2-4.3-3.3c-1.2-1.4-2.2-3-2.8-4.7
			c-0.7-1.8-1-3.6-1-5.4c0-1.9,0.3-3.8,1-5.5c0.7-1.8,1.6-3.3,2.8-4.7c1.2-1.3,2.6-2.4,4.2-3.2c1.6-0.8,3.4-1.2,5.4-1.2
			c1.4,0,2.7,0.2,3.9,0.5c1.2,0.3,2.2,0.7,3.1,1.3c0.9,0.6,1.7,1.2,2.4,2c0.7,0.8,1.2,1.6,1.7,2.5l-2.2,1.5c-1-1.8-2.2-3.1-3.7-4
			c-1.5-0.8-3.2-1.3-5.2-1.3c-1.6,0-3.1,0.3-4.3,1c-1.3,0.7-2.4,1.6-3.3,2.7c-0.9,1.1-1.6,2.4-2.1,3.9c-0.5,1.5-0.7,3-0.7,4.5
			c0,1.6,0.3,3.2,0.8,4.6c0.6,1.5,1.3,2.8,2.3,3.9c1,1.1,2.1,2,3.4,2.6c1.3,0.7,2.8,1,4.3,1c1.7,0,3.2-0.4,4.7-1.2
			c1.5-0.8,2.9-2,4.3-3.6v-4.9H193v-2.2h8.8v14.2h-2.4V144.6z"/>
		<path class="st0" d="M212.8,125.2v23.6H210v-28.9h2.2l19.2,24.1v-24h2.8v28.9h-2.4L212.8,125.2z"/>
		<path class="st0" d="M262.9,146.3v2.5h-19.4v-28.9h19.1v2.5h-16.3v10.4h14.2v2.4h-14.2v11H262.9z"/>
		<path class="st0" d="M270.5,148.8v-28.9h12.2c1.2,0,2.4,0.3,3.5,0.8s2,1.2,2.7,2.1c0.8,0.9,1.4,1.8,1.8,2.9
			c0.4,1.1,0.6,2.2,0.6,3.3c0,1.1-0.2,2.1-0.5,3c-0.3,1-0.8,1.8-1.3,2.6c-0.6,0.8-1.2,1.4-2,2c-0.8,0.5-1.7,0.9-2.6,1.1l7.1,11.2
			h-3.2l-6.8-10.7h-8.6v10.7H270.5z M273.3,135.6h9.5c0.8,0,1.6-0.2,2.3-0.6c0.7-0.4,1.3-0.9,1.8-1.5c0.5-0.6,0.9-1.3,1.1-2.1
			s0.4-1.6,0.4-2.5c0-0.9-0.2-1.7-0.5-2.5c-0.3-0.8-0.7-1.5-1.3-2.1s-1.2-1.1-1.9-1.4c-0.7-0.4-1.5-0.5-2.3-0.5h-9.3V135.6z"/>
	</g>
	<g>
		<path class="st0" d="M366.4,144.6c-2.7,2.9-5.8,4.4-9.3,4.4c-2,0-3.8-0.4-5.4-1.3c-1.6-0.8-3.1-2-4.3-3.3c-1.2-1.4-2.2-3-2.8-4.7
			c-0.7-1.8-1-3.6-1-5.4c0-1.9,0.3-3.8,1-5.5c0.7-1.8,1.6-3.3,2.8-4.7c1.2-1.3,2.6-2.4,4.2-3.2c1.6-0.8,3.4-1.2,5.4-1.2
			c1.4,0,2.7,0.2,3.9,0.5c1.2,0.3,2.2,0.7,3.1,1.3c0.9,0.6,1.7,1.2,2.4,2c0.7,0.8,1.2,1.6,1.7,2.5l-2.2,1.5c-1-1.8-2.2-3.1-3.7-4
			c-1.5-0.8-3.2-1.3-5.2-1.3c-1.6,0-3.1,0.3-4.3,1c-1.3,0.7-2.4,1.6-3.3,2.7c-0.9,1.1-1.6,2.4-2.1,3.9c-0.5,1.5-0.7,3-0.7,4.5
			c0,1.6,0.3,3.2,0.8,4.6c0.6,1.5,1.3,2.8,2.3,3.9c1,1.1,2.1,2,3.4,2.6c1.3,0.7,2.8,1,4.3,1c1.7,0,3.2-0.4,4.7-1.2
			c1.5-0.8,2.9-2,4.3-3.6v-4.9H360v-2.2h8.8v14.2h-2.4V144.6z"/>
		<path class="st0" d="M388.6,149c-2,0-3.9-0.4-5.5-1.2c-1.7-0.8-3.1-1.9-4.3-3.3c-1.2-1.4-2.1-2.9-2.8-4.7c-0.7-1.8-1-3.6-1-5.4
			c0-1.9,0.3-3.8,1-5.5c0.7-1.8,1.7-3.3,2.9-4.7s2.7-2.4,4.3-3.2c1.7-0.8,3.5-1.2,5.4-1.2c2,0,3.9,0.4,5.5,1.3
			c1.7,0.9,3.1,2,4.3,3.4s2.1,3,2.8,4.7c0.7,1.8,1,3.5,1,5.4c0,1.9-0.3,3.8-1,5.5c-0.7,1.8-1.6,3.3-2.9,4.7
			c-1.2,1.3-2.6,2.4-4.3,3.2C392.3,148.6,390.5,149,388.6,149z M377.9,134.4c0,1.6,0.3,3.1,0.8,4.5c0.5,1.5,1.2,2.7,2.2,3.9
			c1,1.1,2.1,2,3.4,2.7s2.8,1,4.4,1c1.6,0,3.1-0.4,4.4-1.1c1.3-0.7,2.5-1.6,3.4-2.8c0.9-1.1,1.6-2.4,2.1-3.9
			c0.5-1.4,0.8-2.9,0.8-4.4c0-1.6-0.3-3.1-0.8-4.5s-1.3-2.7-2.2-3.9c-1-1.1-2.1-2-3.4-2.7c-1.3-0.7-2.7-1-4.3-1
			c-1.6,0-3.1,0.3-4.4,1c-1.3,0.7-2.5,1.6-3.4,2.8c-0.9,1.1-1.6,2.4-2.1,3.9C378.1,131.4,377.9,132.9,377.9,134.4z"/>
		<path class="st0" d="M428.9,122.4h-10.3v26.4h-2.9v-26.4h-10.3v-2.5h23.5V122.4z"/>
		<path class="st0" d="M458.2,119.9v28.9h-2.9v-13.5h-17.2v13.5h-2.8v-28.9h2.8v12.9h17.2v-12.9H458.2z"/>
		<path class="st0" d="M467.6,148.8v-28.9h2.8v28.9H467.6z"/>
		<path class="st0" d="M477.9,134.2c0-1.7,0.3-3.5,0.9-5.2c0.6-1.7,1.5-3.3,2.7-4.6c1.2-1.4,2.6-2.5,4.3-3.3
			c1.7-0.9,3.7-1.3,5.8-1.3c2.6,0,4.8,0.6,6.6,1.8s3.2,2.7,4.1,4.6l-2.3,1.4c-0.5-1-1-1.8-1.7-2.4c-0.7-0.7-1.4-1.2-2.1-1.6
			s-1.5-0.7-2.4-0.9c-0.8-0.2-1.6-0.3-2.4-0.3c-1.7,0-3.3,0.4-4.6,1.1c-1.3,0.7-2.5,1.6-3.4,2.8c-0.9,1.1-1.6,2.4-2.1,3.9
			c-0.5,1.4-0.7,2.9-0.7,4.3c0,1.6,0.3,3.1,0.8,4.6c0.6,1.5,1.3,2.8,2.3,3.9c1,1.1,2.1,2,3.4,2.7c1.3,0.7,2.8,1,4.3,1
			c0.8,0,1.7-0.1,2.5-0.3s1.7-0.5,2.5-1c0.8-0.4,1.5-1,2.2-1.7c0.7-0.7,1.2-1.5,1.7-2.4l2.4,1.2c-0.5,1.1-1.1,2-2,2.9
			c-0.8,0.8-1.8,1.5-2.8,2.1c-1,0.6-2.1,1-3.3,1.3s-2.3,0.4-3.4,0.4c-2,0-3.8-0.4-5.5-1.3c-1.7-0.9-3.1-2-4.3-3.4
			c-1.2-1.4-2.1-3-2.8-4.8C478.2,137.8,477.9,136,477.9,134.2z"/>
		<path class="st0" d="M548,148.8v-23.8l-10.6,18.4h-1.7l-10.6-18.4v23.8h-2.8v-28.9h2.9l11.3,19.8l11.3-19.8h2.9v28.9H548z"/>
		<path class="st0" d="M579.6,146.3v2.5h-19.4v-28.9h19.1v2.5H563v10.4h14.2v2.4H563v11H579.6z"/>
		<path class="st0" d="M587.2,148.8v-28.9h12.2c1.2,0,2.4,0.3,3.5,0.8c1.1,0.5,2,1.2,2.7,2.1c0.8,0.9,1.4,1.8,1.8,2.9
			c0.4,1.1,0.6,2.2,0.6,3.3c0,1.1-0.2,2.1-0.5,3c-0.3,1-0.8,1.8-1.3,2.6c-0.6,0.8-1.2,1.4-2,2c-0.8,0.5-1.7,0.9-2.6,1.1l7.1,11.2
			h-3.2l-6.8-10.7H590v10.7H587.2z M590,135.6h9.5c0.8,0,1.6-0.2,2.3-0.6c0.7-0.4,1.3-0.9,1.8-1.5c0.5-0.6,0.9-1.3,1.1-2.1
			s0.4-1.6,0.4-2.5c0-0.9-0.2-1.7-0.5-2.5c-0.3-0.8-0.7-1.5-1.3-2.1c-0.5-0.6-1.2-1.1-1.9-1.4c-0.7-0.4-1.5-0.5-2.3-0.5H590V135.6z"
			/>
		<path class="st0" d="M641.8,148.8v-23.8l-10.6,18.4h-1.7l-10.6-18.4v23.8h-2.8v-28.9h2.9l11.3,19.8l11.3-19.8h2.9v28.9H641.8z"/>
		<path class="st0" d="M650.9,148.8l12.1-28.9h2.3l12.1,28.9h-3.1l-3.7-9h-13l-3.7,9H650.9z M664.2,123.2l-6,14.3H670L664.2,123.2z"
			/>
		<path class="st0" d="M683.7,148.8v-28.9h2.8v28.9H683.7z"/>
		<path class="st0" d="M695.8,148.8v-28.9h9.8c2.3,0,4.3,0.4,6.1,1.1c1.7,0.8,3.2,1.8,4.3,3.1c1.2,1.3,2,2.8,2.6,4.6
			c0.6,1.8,0.9,3.6,0.9,5.6c0,2.2-0.3,4.2-1,6s-1.6,3.3-2.8,4.6c-1.2,1.3-2.6,2.2-4.4,2.9c-1.7,0.7-3.6,1-5.7,1H695.8z M716.6,134.3
			c0-1.7-0.2-3.3-0.7-4.8c-0.5-1.5-1.2-2.7-2.1-3.8s-2.1-1.9-3.4-2.5c-1.4-0.6-2.9-0.9-4.7-0.9h-7v23.9h7c1.8,0,3.4-0.3,4.7-0.9
			c1.4-0.6,2.5-1.5,3.4-2.5s1.6-2.3,2.1-3.8C716.4,137.6,716.6,136,716.6,134.3z"/>
	</g>
	<g>
		<path class="st1" d="M307.6,148.8c-0.6,0-1.1-0.4-1.2-1c-0.1-0.6,0.2-1.1,0.8-1.3l18.4-6.3h-18c-0.6,0-1.1-0.4-1.2-1
			c-0.1-0.6,0.2-1.1,0.8-1.3l18.4-6.3H308c-0.6,0-1-0.4-1.1-1c-0.1-0.6,0.2-1.1,0.8-1.3l19-7.3h-18.9c-0.7,0-1.1-0.6-1.1-1.2
			s0.5-1.2,1.1-1.2h25.4c0.6,0,1.1,0.4,1.2,1c0.1,0.6-0.2,1.1-0.8,1.3l-19.1,7.3h18.7c0.7,0,1.2,0.6,1.2,1.2s-0.5,1.2-1.2,1.2
			l-18.3,6.3h18h0c0,0,0.1,0,0.2,0h0c0,0,0,0,0,0c0.1,0,0.1,0,0.2,0c0,0,0.1,0,0.1,0.1c0,0,0,0,0,0c0,0,0,0,0,0c0,0,0.1,0,0.1,0.1
			c0,0,0.1,0.1,0.1,0.1l0,0l0,0c0,0.1,0.1,0.1,0.1,0.2l0,0c0,0,0,0.1,0,0.1v0.1c0,0,0,0,0,0.1v0.1c0,0,0,0,0,0v0c0,0,0,0.1,0,0.2v0
			c0,0,0,0,0,0c0,0.1,0,0.1,0,0.2c0,0,0,0.1-0.1,0.1c0,0,0,0,0,0v0.1c0,0-0.1,0.1-0.1,0.1l-0.1,0.1c0,0,0,0,0,0h0l-0.2,0.1
			c0,0,0,0,0,0l-18.4,6.4h18c0.6,0,1.1,0.5,1.1,1.2c0,0.7-0.5,1.2-1.1,1.2H307.6z"/>
	</g>
</g>
</svg>
